<?xml version="1.0" encoding="iso-8859-1"?>
<!-- Generator: Adobe Illustrator 19.0.0, SVG Export Plug-In . SVG Version: 6.00 Build 0)  -->
<svg xmlns="http://www.w3.org/2000/svg" xmlns:xlink="http://www.w3.org/1999/xlink" version="1.1" id="Layer_1" x="0px" y="0px" viewBox="0 0 488 488" style="enable-background:new 0 0 488 488;" xml:space="preserve" width="512px" height="512px">
<g>
	<g>
		<path d="M487.16,472.424L464.84,427.8c-12.272-24.552-36.944-39.8-64.392-39.8H360c-28.44,0-51.944-21.328-55.488-48.816    C333.048,320.624,352,288.504,352,252v-96c0-30.872-25.12-56-56-56H112c-4.416,0-8,3.576-8,8c0,14.576,6.528,27.656,16.824,36.472    C120.296,145.528,120,146.736,120,148c0,17.24,9.264,33.016,24,41.528V252c0,36.504,18.952,68.624,47.488,87.184    C187.944,366.672,164.44,388,136,388H95.552c-27.448,0-52.128,15.248-64.4,39.8L8.84,472.424C8.288,473.528,8,474.76,8,476v8h16    v-6.112l21.472-42.936C55.016,415.856,74.208,404,95.552,404H136c34.472,0,63.336-24.36,70.344-56.768    C219.112,352.84,233.184,356,248,356s28.888-3.16,41.656-8.768C296.664,379.64,325.528,404,360,404h40.448    c21.344,0,40.536,11.856,50.088,30.952L472,477.888V484h16v-8C488,474.76,487.712,473.528,487.16,472.424z M248,340    c-48.52,0-88-39.48-88-88v-67.376c0-3.176-1.88-6.056-4.792-7.328c-9.152-4.008-15.76-11.936-18.184-21.296H152    c4.416,0,8-3.576,8-8c0-4.424-3.584-8-8-8c-14.88,0-27.424-10.208-30.992-24H296c22.056,0,40,17.944,40,40v96    C336,300.52,296.52,340,248,340z" fill="#FFFFFF"/>
	</g>
</g>
<g>
	<g>
		<path d="M287.16,472.424l-22.592-45.184L278.4,408.8c1.824-2.424,2.112-5.664,0.76-8.376c-1.352-2.712-4.128-4.424-7.16-4.424h-48    c-3.032,0-5.8,1.712-7.16,4.424c-1.36,2.712-1.056,5.952,0.76,8.376l13.832,18.44l-22.592,45.184    c-0.552,1.104-0.84,2.336-0.84,3.576v8h16v-6.112l18.272-36.536c1.496,1.6,3.504,2.648,5.728,2.648s4.232-1.048,5.728-2.648    L272,477.888V484h16v-8C288,474.76,287.712,473.528,287.16,472.424z M248,422.664L240,412h16L248,422.664z" fill="#FFFFFF"/>
	</g>
</g>
<g>
	<g>
		<path d="M274.344,38.344L256,56.688V4h-16v52.688l-18.344-18.344l-11.312,11.312l32,32C243.904,83.216,245.952,84,248,84    c2.048,0,4.096-0.784,5.656-2.344l32-32L274.344,38.344z" fill="#FFFFFF"/>
	</g>
</g>
<g>
	<g>
		<path d="M448,196h-52.688l18.344-18.344l-11.312-11.312l-32,32c-3.128,3.128-3.128,8.184,0,11.312l32,32l11.312-11.312    L395.312,212H448V196z" fill="#FFFFFF"/>
	</g>
</g>
<g>
	<g>
		<path d="M125.656,198.344l-32-32l-11.312,11.312L100.688,196H48v16h52.688l-18.344,18.344l11.312,11.312l32-32    C128.784,206.528,128.784,201.472,125.656,198.344z" fill="#FFFFFF"/>
	</g>
</g>
<g>
	<g>
		<rect x="464" y="196" width="16" height="16" fill="#FFFFFF"/>
	</g>
</g>
<g>
	<g>
		<rect x="16" y="196" width="16" height="16" fill="#FFFFFF"/>
	</g>
</g>
<g>
	<g>
		<path d="M208,188c-17.648,0-32,14.352-32,32s14.352,32,32,32s32-14.352,32-32S225.648,188,208,188z M208,236    c-8.824,0-16-7.176-16-16c0-8.824,7.176-16,16-16c8.824,0,16,7.176,16,16C224,228.824,216.824,236,208,236z" fill="#FFFFFF"/>
	</g>
</g>
<g>
	<g>
		<path d="M288,188c-17.648,0-32,14.352-32,32s14.352,32,32,32s32-14.352,32-32S305.648,188,288,188z M288,236    c-8.824,0-16-7.176-16-16c0-8.824,7.176-16,16-16c8.824,0,16,7.176,16,16C304,228.824,296.824,236,288,236z" fill="#FFFFFF"/>
	</g>
</g>
<g>
	<g>
		<path d="M464,4h-96c-13.232,0-24,10.768-24,24v48c0,13.232,10.768,24,24,24v16c0,2.88,1.552,5.536,4.056,6.96    c1.224,0.696,2.584,1.04,3.944,1.04c1.424,0,2.848-0.384,4.12-1.144L418.216,100H464c13.232,0,24-10.768,24-24V28    C488,14.768,477.232,4,464,4z M472,76c0,4.416-3.592,8-8,8h-48c-1.448,0-2.872,0.392-4.12,1.144L384,101.864V92    c0-4.424-3.584-8-8-8h-8c-4.408,0-8-3.584-8-8V28c0-4.416,3.592-8,8-8h96c4.408,0,8,3.584,8,8V76z" fill="#FFFFFF"/>
	</g>
</g>
<g>
	<g>
		<rect x="376" y="44" width="16" height="16" fill="#FFFFFF"/>
	</g>
</g>
<g>
	<g>
		<rect x="408" y="44" width="16" height="16" fill="#FFFFFF"/>
	</g>
</g>
<g>
	<g>
		<rect x="440" y="44" width="16" height="16" fill="#FFFFFF"/>
	</g>
</g>
<g>
	<g>
		<path d="M121.744,292.064l6.096-30.496c0.664-3.328-0.84-6.712-3.752-8.448c-2.912-1.744-6.6-1.448-9.208,0.728L69.104,292H24    c-13.232,0-24,10.768-24,24v32c0,13.232,10.768,24,24,24h96c13.232,0,24-10.768,24-24v-32    C144,303.352,134.168,292.96,121.744,292.064z M128,348c0,4.416-3.592,8-8,8H24c-4.408,0-8-3.584-8-8v-32c0-4.416,3.592-8,8-8h48    c1.872,0,3.68-0.656,5.12-1.848l30.592-25.496l-3.552,17.776c-0.472,2.352,0.136,4.792,1.656,6.64    C107.336,306.92,109.6,308,112,308h8c4.408,0,8,3.584,8,8V348z" fill="#FFFFFF"/>
	</g>
</g>
<g>
	<g>
		<rect x="96" y="324" width="16" height="16" fill="#FFFFFF"/>
	</g>
</g>
<g>
	<g>
		<rect x="64" y="324" width="16" height="16" fill="#FFFFFF"/>
	</g>
</g>
<g>
	<g>
		<rect x="32" y="324" width="16" height="16" fill="#FFFFFF"/>
	</g>
</g>
<g>
	<g>
		<path d="M288,276c0,13.232-10.768,24-24,24v16c22.056,0,40-17.944,40-40H288z" fill="#FFFFFF"/>
	</g>
</g>
<g>
	<g>
		<path d="M96,4H32C18.768,4,8,14.768,8,28v32c0,13.232,10.768,24,24,24h13.784l38.096,22.856C85.152,107.616,86.576,108,88,108    c1.36,0,2.72-0.344,3.944-1.04C94.448,105.536,96,102.88,96,100V84c13.232,0,24-10.768,24-24V28C120,14.768,109.232,4,96,4z     M104,60c0,4.416-3.592,8-8,8h-8c-4.416,0-8,3.576-8,8v9.864L52.12,69.136C50.872,68.392,49.448,68,48,68H32c-4.408,0-8-3.584-8-8    V28c0-4.416,3.592-8,8-8h64c4.408,0,8,3.584,8,8V60z" fill="#FFFFFF"/>
	</g>
</g>
<g>
	<g>
		<rect x="72" y="36" width="16" height="16" fill="#FFFFFF"/>
	</g>
</g>
<g>
	<g>
		<rect x="40" y="36" width="16" height="16" fill="#FFFFFF"/>
	</g>
</g>
<g>
	<g>
		<path d="M440,292h-13.784l-38.096-22.856c-2.472-1.488-5.552-1.528-8.056-0.104c-2.512,1.424-4.064,4.08-4.064,6.96v16    c-13.232,0-24,10.768-24,24v32c0,13.232,10.768,24,24,24h64c13.232,0,24-10.768,24-24v-32C464,302.768,453.232,292,440,292z     M448,348c0,4.416-3.592,8-8,8h-64c-4.408,0-8-3.584-8-8v-32c0-4.416,3.592-8,8-8h8c4.416,0,8-3.576,8-8v-9.864l27.88,16.728    c1.248,0.744,2.672,1.136,4.12,1.136h16c4.408,0,8,3.584,8,8V348z" fill="#FFFFFF"/>
	</g>
</g>
<g>
	<g>
		<rect x="384" y="324" width="16" height="16" fill="#FFFFFF"/>
	</g>
</g>
<g>
	<g>
		<rect x="416" y="324" width="16" height="16" fill="#FFFFFF"/>
	</g>
</g>
<g>
</g>
<g>
</g>
<g>
</g>
<g>
</g>
<g>
</g>
<g>
</g>
<g>
</g>
<g>
</g>
<g>
</g>
<g>
</g>
<g>
</g>
<g>
</g>
<g>
</g>
<g>
</g>
<g>
</g>
</svg>
