<svg id="f26aa8b8-b4dc-4acc-90b3-881313118441" data-name="Capa 1" xmlns="http://www.w3.org/2000/svg" viewBox="0 0 353 569"><title>cartoon-blue</title><ellipse cx="172" cy="189" rx="156" ry="154" style="fill:#ffd990"/><circle cx="125" cy="171" r="40" style="fill:#fff"/><path d="M35,217s7-20,11-27,8,7,8,10,0-59,10-76c0,0,8,5,9,8s17-24,28-33l4,4s25-14,53-2c0,0,8,0,9,1l14,21s7-9,7-15a20,20,0,0,1,15,3s22-10,36-20c0,0,7,4,9,11s3-4,4-2,4,2,5,4,7-5,9-4,13,3,18,11,3-5,9-5,25,25,31,67c15-88,16-87,15-98H310s-2-6,0-6l43-30S284,4,203,13c0,0-3-5,6-10S131,2,98,37H89s-2-4-1-10S47,62,27,121H18s-4,37,1,58C19,179,40,191,35,217Z" style="fill:#212121"/><circle cx="131" cy="167" r="29" style="fill:#162549"/><circle cx="136" cy="162" r="21"/><ellipse cx="116" cy="165" rx="7" ry="14" style="fill:#fff"/><circle cx="281" cy="171" r="33" style="fill:#fff"/><circle cx="283" cy="165" r="24" style="fill:#162549"/><circle cx="287" cy="162" r="18"/><ellipse cx="271" cy="162" rx="7" ry="12" style="fill:#fff"/><path d="M92,217s125,29,223-13c0,0-13,75-78,113C236,317,101,373,92,217Z" style="fill:#1c1110"/><path d="M92,229s103,25,191-5c0,0,5-1,10-13,0,0-61,29-202,5Z" style="fill:#fff"/><path d="M233,308s-38,24-108-3c0,0,39,43,113,10Z" style="fill:#fff"/><path d="M19,173s22,11,16,38c0,0-5,11-10,12s-13,7-20-12C4,211-1,183,19,173Z" style="fill:#ffd990"/><path d="M155,365s23,31,23-3c0,0-2-6-2-19l-21-2S157,362,155,365Z" style="fill:#ffd990"/><path d="M220,413s8,17,10,28c0,0,8,10,6,22a18,18,0,0,1-8,9s-8,1-4-11a9,9,0,0,0,2-8s-1-3-2,1-2,3-3,1,1-16-4-40Z" style="fill:#ffd990"/><path d="M124,419s-8,22-11,34a42,42,0,0,0-10,32s2,10,16,7c0,0,6-2,7-7a2,2,0,0,0-1-2c-1-1-2-3-3-7s-3-14,4-2c0,0,4,7,4-4s0-5-4-15-2-9,7-28Z" style="fill:#ffd990"/><path d="M137,532s-55,14-34,33c0,0,12,10,33-2,0,0,30-13,28-33Z" style="fill:#212121"/><path d="M204,528s-2,4-1,5,28,24,42,17c0,0,19-12,4-21,0,0-6-4-26-7Z" style="fill:#212121"/><path d="M136,463s2,8,7,11-8,52-5,57,12,8,26-1c0,0-5-38-2-47s26,4,39,0c0,0,0,40,4,45s11,2,20-5-3-33-9-48c0,0,4-4,6-21C221,454,193,472,136,463Z" style="fill:#262e47"/><path d="M155,365s-22,21-32,53c0,0,6,8,10,10l4-5s-5,30-3,40,48,13,86-9c0,0,0-26-4-38l3-2s-8-35-41-52C178,362,180,386,155,365Z" style="fill:#162549"/><path d="M107,281s97-20,118,31c0,0-37,17-99-7C125,306,113,295,107,281Z" style="fill:#ff2a1f"/></svg>