<svg id="Capa_1" data-name="Capa 1" xmlns="http://www.w3.org/2000/svg" viewBox="0 0 380.98 376.48"><title>cartoon</title><ellipse cx="195.05" cy="208.98" rx="156" ry="154.33" style="fill:#ffd990"/><circle cx="143.99" cy="191.15" r="39.83" style="fill:#fff"/><circle cx="150.29" cy="186.82" r="29.33" style="fill:#0091ce"/><path d="M54,231s7-19.63,11.45-27.4c0,0,7.77,7,8.18,10.22,0,0-.41-59.3,10.22-76.47,0,0,8.18,4.91,9.41,7.77,0,0,16.77-24.13,27.81-33.12l3.68,4.09s25.35-14.31,53.16-1.64c0,0,7.77-.41,9,.82l13.84,21.27s7.42-9,7.42-15.13a20.17,20.17,0,0,1,15.13,2.86s22.08-10.22,36.4-20.45c0,0,7.36,4.5,9,10.63,0,0,3.27-4.09,4.5-2,0,0,4.5,2,4.91,4.5,0,0,7.36-4.91,9.41-3.68,0,0,12.68,2.86,18,11,0,0,3.27-4.91,9-4.91,0,0,25.35,24.95,30.67,67.48,0,0,15.54-88.33,14.72-98.15H328.84s-1.64-5.73,0-5.73l42.53-29.85S303.07,17.53,222.1,26.94c0,0-2.86-5.32,6.13-10.22,0,0-78.52-.82-111.64,33.94L108,51.88s-2.45-3.68-1.23-9.81c0,0-40.49,33.94-60.93,92.83,0,0-9.41-.82-9-.41,0,0-4.23,37.49,1.44,58.49C38.29,193,59.1,205.36,54,231Z" style="fill:#212121"/><circle cx="155.2" cy="182.06" r="21.42"/><ellipse cx="135.64" cy="185.48" rx="7.35" ry="14.17" style="fill:#fff"/><circle cx="300.29" cy="191.48" r="33" style="fill:#fff"/><circle cx="302.45" cy="184.81" r="24.17" style="fill:#0091ce"/><circle cx="306.03" cy="182.06" r="17.85"/><ellipse cx="290.05" cy="182.06" rx="6.9" ry="11.62" style="fill:#fff"/><path d="M110.77,237.58S236,266.15,333.29,224.48c0,0-13.34,74.87-78.34,112.87C254.95,337.35,119.77,392.91,110.77,237.58Z" style="fill:#1c1110"/><path d="M111.38,249.76s103.4,25.36,190.65-5.48c0,0,4.67-1.08,10-12.8,0,0-60.55,29.11-202.07,5.25Z" style="fill:#fff"/><path d="M252.45,328.57s-38.33,24.16-108-2.5c0,0,38.68,43,112.51,10.5Z" style="fill:#fff"/><path d="M38.29,193S60.17,204.35,54,231c0,0-5.12,10.61-10.26,12,0,0-12.66,6.77-20.15-12C23.62,231,18.38,203.63,38.29,193Z" style="fill:#ffd990"/><path d="M125.8,301.54s96.6-19.56,117.86,31.08c0,0-37,17.42-99.21-6.56C144.44,326.06,132.15,315.63,125.8,301.54Z" style="fill:#ff2a1f"/></svg>