<svg id="1bc185cb-658d-4851-a76f-2c6acc57fd3b" data-name="Capa 1" xmlns="http://www.w3.org/2000/svg" viewBox="0 0 397 401"><title>cartoon-hb</title><path d="M353,216c0,85-70,154-156,154-74,0-136-51-152-120h1c5-1,10-12,10-12s7-20,11-27,8,7,8,10,0-59,10-76c0,0,8,5,9,8s17-24,28-33l4,4s25-14,53-2c0,0,8,0,9,1l14,21s7-9,7-15a20,20,0,0,1,15,3s22-10,36-20c0,0,7,5,9,11s3-4,5-2,4,2,5,4,7-5,9-4,13,3,18,11,3-5,9-5,25,25,31,67l2-12A153,153,0,0,1,353,216Z" style="fill:none;stroke:#fff;stroke-miterlimit:10;stroke-width:4px"/><circle cx="146" cy="198" r="40" style="fill:#fff"/><circle cx="152" cy="193" r="29" style="fill:#162549"/><path d="M362,95c1,8-8,62-13,86l-2,12c-5-43-31-67-31-67s-9,5-9,5-18-11-18-11-9,4-9,4-5-4-5-4-4,2-4,2-9-11-9-11c-14,10-36,20-36,20a20,20,0,0,0-15-3c0,6-7,15-7,15l-14-21c-1-1-9-1-9-1-28-13-53,2-53,2l-4-4c-11,9-28,33-28,33s-9-8-9-8c-11,17-10,76-10,76s-8-10-8-10-11,27-11,27c4-21-10-34-14-37H40c-6-21-1-58-1-58h9c20-59,61-93,61-93s1,10,1,10h9c33-35,112-34,112-34s-6,10-6,10c81-9,149,26,149,26L331,90c-2,0,0,6,0,6Z" style="fill:#fff"/><circle cx="157" cy="189" r="21"/><circle cx="302" cy="198" r="33" style="fill:#fff"/><circle cx="304" cy="191" r="24" style="fill:#162549"/><circle cx="308" cy="189" r="18"/><path d="M112,244s125,29,223-13c0,0-13,75-78,113C257,344,121,400,112,244Z" style="fill:none;stroke:#fff;stroke-miterlimit:10;stroke-width:3px"/><path d="M113,256s103,25,191-5c0,0,5-1,10-13,0,0-61,29-202,5Z" style="fill:#fff"/><path d="M254,335s-38,24-108-3c0,0,39,43,113,10Z" style="fill:#fff"/><path d="M56,238s-5,11-10,12H45c-3,1-13,4-19-12,0,0-5-27,15-38h2C46,204,60,216,56,238Z" style="fill:none;stroke:#fff;stroke-miterlimit:10;stroke-width:4px"/><path d="M56,238c4-21-10-34-14-37H40C42,201,62,212,56,238Z" style="fill:none;stroke:#fff;stroke-miterlimit:10"/><path d="M127,308s97-20,118,31c0,0-37,17-99-7C146,333,134,322,127,308Z" style="fill:none;stroke:#fff;stroke-miterlimit:10;stroke-width:3px"/><ellipse cx="141" cy="191" rx="7" ry="14" style="fill:#fff"/><ellipse cx="295" cy="191" rx="7" ry="14" style="fill:#fff"/></svg>