<?xml version="1.0" encoding="utf-8"?>
<!-- Generator: Adobe Illustrator 20.1.0, SVG Export Plug-In . SVG Version: 6.00 Build 0)  -->
<svg version="1.1" xmlns="http://www.w3.org/2000/svg" xmlns:xlink="http://www.w3.org/1999/xlink" x="0px" y="0px"
	 viewBox="0 0 512 512" style="enable-background:new 0 0 512 512;" xml:space="preserve">
<style type="text/css">
	.st0{display:none;}
	.st1{display:inline;}
	.st2{fill:#FFFFFF;}
</style>
<g id="Capa_2" class="st0">
	<rect class="st1" width="512" height="512"/>
</g>
<g id="Layer_1">
	<g>
		<path class="st2" d="M448.7,114.2V64.7c0-3.8-3.1-6.9-6.9-6.9H6.9c-3.8,0-6.9,3.1-6.9,6.9v319.2c0,3.8,3.1,6.9,6.9,6.9h51.7
			c2.6,0,4.7,2.1,4.7,4.7v51.7c0,3.8,3.1,6.9,6.9,6.9h434.8c3.8,0,6.9-3.1,6.9-6.9V128.1c0-3.8-3.1-6.9-6.9-6.9h-49.5
			C451.8,121.1,448.7,118,448.7,114.2z M283,299.1L133.9,164.9c-4.7-4.3-1.7-12.1,4.6-12.1h298.3c6.4,0,9.4,7.8,4.6,12.1
			L292.3,299.1C289.7,301.5,285.7,301.5,283,299.1z M106.6,182.9l110.6,99.6c3.1,2.8,3.1,7.6,0,10.3l-110.6,99.6
			c-4.5,4-11.6,0.9-11.6-5.2V188.1C95,182.1,102.1,178.9,106.6,182.9z M251.3,313.2l31.8,28.6c2.6,2.4,6.6,2.4,9.3,0l31.8-28.6
			c2.6-2.4,6.6-2.4,9.3,0l108.1,97.3c4.7,4.3,1.7,12.1-4.6,12.1H138.5c-6.4,0-9.4-7.8-4.6-12.1L242,313.2
			C244.6,310.8,248.6,310.8,251.3,313.2z M358.1,282.5l110.6-99.6c4.5-4,11.6-0.9,11.6,5.2v199.1c0,6-7.1,9.2-11.6,5.2l-110.6-99.6
			C355.1,290.1,355.1,285.3,358.1,282.5z M31.7,352.3V96.4c0-3.8,3.1-6.9,6.9-6.9H410c3.8,0,6.9,3.1,6.9,6.9v17.8
			c0,3.8-3.1,6.9-6.9,6.9H70.3c-3.8,0-6.9,3.1-6.9,6.9v228.4c0,1.5-1.2,2.8-2.8,2.8h-22C34.8,359.2,31.7,356.1,31.7,352.3z"/>
	</g>
</g>
</svg>
