<?xml version="1.0" encoding="utf-8"?>
<!-- Generator: Adobe Illustrator 20.1.0, SVG Export Plug-In . SVG Version: 6.00 Build 0)  -->
<svg version="1.1" xmlns="http://www.w3.org/2000/svg" xmlns:xlink="http://www.w3.org/1999/xlink" x="0px" y="0px"
	 viewBox="0 0 512 512" style="enable-background:new 0 0 512 512;" xml:space="preserve">
<style type="text/css">
	.st0{display:none;}
	.st1{display:inline;stroke:#FFFFFF;stroke-miterlimit:10;}
	.st2{fill:#FFFFFF;}
</style>
<g id="Capa_2" class="st0">
	<rect class="st1" width="512" height="512"/>
</g>
<g id="Capa_1">
	<g>
		<g>
			<path class="st2" d="M285.9,320.7h-10.7c-5.6,0-10.1-4.5-10.1-10.1c0-2.1,0.8-4,2.3-5.5c6.2-6.1,11.5-14.3,15.3-23.1
				c0.8,0.6,1.6,1,2.5,1c6,0,13.1-13.3,13.1-22.4c0-9.1-0.8-16.4-6.8-16.4c-0.7,0-1.5,0.1-2.3,0.3c-0.4-24.6-6.7-55.4-44.3-55.4
				c-39.2,0-43.8,30.7-44.3,55.3c-0.5-0.1-1.1-0.2-1.6-0.2c-6,0-6.9,7.4-6.9,16.4c0,9.1,7.1,22.4,13.1,22.4c0.8,0,1.4-0.2,2.1-0.6
				c3.8,8.7,9,16.7,15.1,22.7c1.5,1.4,2.3,3.4,2.3,5.5c0,5.6-4.5,10.1-10.1,10.1H204c-23,0-41.6,18.6-41.6,41.6V387h165v-24.7
				C327.5,339.3,308.9,320.7,285.9,320.7z"/>
			<path class="st2" d="M410.4,206.6H294c3.4,7.4,5.8,16.6,6.8,27.9c2.5,1.5,4.3,4,5.9,7h103.7c5.4,0,9.7-4.4,9.7-9.7v-15.4
				C420.1,210.9,415.8,206.6,410.4,206.6z"/>
			<path class="st2" d="M410.4,270.2H309c-2.8,10.4-9.5,21.3-18.9,24.2c-0.3,0.5-0.6,1-0.9,1.5v9.2h121.1c5.4,0,9.7-4.4,9.7-9.7
				v-15.4C420.1,274.5,415.8,270.2,410.4,270.2z"/>
			<path class="st2" d="M410.4,333.7h-79.1c5.2,8.3,8.3,18,8.3,28.5v6.4h70.8c5.4,0,9.7-4.4,9.7-9.7v-15.4
				C420.1,338.1,415.8,333.7,410.4,333.7z"/>
			<path class="st2" d="M485.2,109.5H76.5c-3.3,0-6,2.7-6,6l0,322.8c0,33-8.3,28.4,51.5,28.4l384-0.2c3.3,0,6-2.7,6-6l0.5-318.5
				C512.5,109,518.2,109.5,485.2,109.5z M483.8,406.7c0,31.6,0,31.6-31.6,31.6H130.3c-31.6,0-31.6,0-31.6-31.6v-263c0-3.3,2.7-6,6-6
				h373.1c3.3,0,6,2.7,6,6v294.6L483.8,406.7z"/>
			<path class="st2" d="M28.2,73.7h241.3h102h30.8c13.1,0,3.8,8.1,8.5,19.5h29.4c-5.6-27.3,8.8-47.8-20.2-47.8h-62.3H278H8
				c-4.4,0-8,3.6-8,8v289.2c0,67.3-3,59.2,54.3,59.2v-28.3c-26,0-26.1,4.5-26.1-11V73.7z"/>
		</g>
	</g>
</g>
</svg>
