<?xml version="1.0" encoding="iso-8859-1"?>
<!-- Generator: Adobe Illustrator 19.0.0, SVG Export Plug-In . SVG Version: 6.00 Build 0)  -->
<svg xmlns="http://www.w3.org/2000/svg" xmlns:xlink="http://www.w3.org/1999/xlink" version="1.1" id="Layer_1" x="0px" y="0px" viewBox="0 0 480 480" style="enable-background:new 0 0 480 480;" xml:space="preserve" width="512px" height="512px">
<g>
	<g>
		<path d="M384,208H112c-22.056,0-40,17.944-40,40v136c0,22.056,17.944,40,40,40h88v56h16v-56h120c4.416,0,8-3.576,8-8v-40    c0-14.88,10.216-27.432,24-30.984V416v64h16v-56c22.056,0,40-17.944,40-40V248C424,225.944,406.056,208,384,208z M112,224h272    c11.552,0,21.208,8.2,23.488,19.088l-167.32,76.056L88.48,243.296C90.672,232.304,100.376,224,112,224z M408,384    c0,13.232-10.768,24-24,24v-72c0-4.424-3.584-8-8-8c-26.472,0-48,21.528-48,48v32H112c-13.232,0-24-10.768-24-24V260.944    l148.424,74.208c1.12,0.568,2.352,0.848,3.576,0.848c1.128,0,2.256-0.24,3.312-0.72L408,260.424V384z" fill="#FFFFFF"/>
	</g>
</g>
<g>
	<g>
		<path d="M420,32H60c-15.44,0-28,12.56-28,28s12.56,28,28,28h360c15.44,0,28-12.56,28-28S435.44,32,420,32z M420,72H60    c-6.616,0-12-5.384-12-12c0-6.616,5.384-12,12-12h360c6.616,0,12,5.384,12,12C432,66.616,426.616,72,420,72z" fill="#FFFFFF"/>
	</g>
</g>
<g>
	<g>
		<path d="M464,0v176H88v16h384c4.416,0,8-3.576,8-8V0H464z" fill="#FFFFFF"/>
	</g>
</g>
<g>
	<g>
		<path d="M16,176V0H0v184c0,4.424,3.584,8,8,8h32v-16H16z" fill="#FFFFFF"/>
	</g>
</g>
<g>
	<g>
		<rect x="432" y="104" width="16" height="16" fill="#FFFFFF"/>
	</g>
</g>
<g>
	<g>
		<rect x="400" y="104" width="16" height="16" fill="#FFFFFF"/>
	</g>
</g>
<g>
	<g>
		<rect x="368" y="104" width="16" height="16" fill="#FFFFFF"/>
	</g>
</g>
<g>
	<g>
		<path d="M69.656,106.344c-3.128-3.128-8.184-3.128-11.312,0l-24,24l11.312,11.312L56,131.312V208h16v-76.688l10.344,10.344    l11.312-11.312L69.656,106.344z" fill="#FFFFFF"/>
	</g>
</g>
<g>
</g>
<g>
</g>
<g>
</g>
<g>
</g>
<g>
</g>
<g>
</g>
<g>
</g>
<g>
</g>
<g>
</g>
<g>
</g>
<g>
</g>
<g>
</g>
<g>
</g>
<g>
</g>
<g>
</g>
</svg>
