<?xml version="1.0" encoding="iso-8859-1"?>
<!-- Generator: Adobe Illustrator 19.0.0, SVG Export Plug-In . SVG Version: 6.00 Build 0)  -->
<svg xmlns="http://www.w3.org/2000/svg" xmlns:xlink="http://www.w3.org/1999/xlink" version="1.1" id="Layer_1" x="0px" y="0px" viewBox="0 0 469.567 469.567" style="enable-background:new 0 0 469.567 469.567;" xml:space="preserve" width="512px" height="512px">
<g>
	<g>
		<rect x="43.341" y="34.327" width="16" height="16" fill="#FFFFFF"/>
	</g>
</g>
<g>
	<g>
		<rect x="75.341" y="34.327" width="16" height="16" fill="#FFFFFF"/>
	</g>
</g>
<g>
	<g>
		<rect x="107.341" y="34.327" width="16" height="16" fill="#FFFFFF"/>
	</g>
</g>
<g>
	<g>
		<path d="M395.341,106.327h-16c0,13.232-10.768,24-24,24v16c13.232,0,24,10.768,24,24h16c0-13.232,10.768-24,24-24v-16    C406.109,130.327,395.341,119.559,395.341,106.327z M387.341,146.575c-2.336-3.144-5.104-5.912-8.248-8.248    c3.144-2.336,5.912-5.104,8.248-8.248c2.336,3.144,5.104,5.912,8.248,8.248C392.445,140.663,389.677,143.431,387.341,146.575z" fill="#FFFFFF"/>
	</g>
</g>
<g>
	<g>
		<path d="M443.341,18.327h-16c0,13.232-10.768,24-24,24v16c13.232,0,24,10.768,24,24h16c0-13.232,10.768-24,24-24v-16    C454.109,42.327,443.341,31.559,443.341,18.327z M435.341,58.575c-2.336-3.144-5.104-5.912-8.248-8.248    c3.144-2.336,5.912-5.104,8.248-8.248c2.336,3.144,5.104,5.912,8.248,8.248C440.445,52.663,437.677,55.431,435.341,58.575z" fill="#FFFFFF"/>
	</g>
</g>
<g>
	<g>
		<path d="M286.693,452.759c-80.384-6.8-172.288-36.936-245.848-80.64l-21.816-12.952c3.248-7.6,5.128-15.544,6.96-23.28    c0.544-2.32,1.096-4.632,1.672-6.92c1.688-6.616,3.56-17.4,5.728-29.872c3.12-17.96,7-40.312,10.504-49.296l47.92-122.816    c1.048-2.68,2-5.568,2.976-8.52c2.592-7.888,5.28-16.056,10.304-20.472c2.832-2.496,6.52-4.352,10.08-5.992    c0.416-0.184,0.808-0.408,1.168-0.664l94.824-72.616c4.752-3.656,11.344-3.608,16.032,0.16l47.552,38.04    c3.008,2.408,4.784,6,4.864,9.856c0.08,3.856-1.528,7.52-4.432,10.064l-30.336,26.536c-5.152,4.504-12.928,4.224-17.752-0.584    c-2.768-2.768-4.128-6.576-3.744-10.472c0.392-3.888,2.48-7.368,5.736-9.536l2.688-1.8l-8.888-13.296l-2.68,1.792    c-7.256,4.832-11.912,12.584-12.776,21.264c-0.864,8.68,2.184,17.192,8.352,23.36c10.76,10.768,28.16,11.344,39.592,1.32    l25.512-22.32l7.848,11.776l-47.928,41.088l-57.256-7.16c0.872-4.096,1.872-8.168,3.04-12.2l-15.36-4.456    c-5.368,18.472-7.848,37.584-7.408,56.824c0.24,10.328,1.344,20.616,2.416,30.568c1.248,11.696,2.432,22.744,2.36,33.936    c-0.216,33.512-13.2,64.8-34.728,83.672l10.544,12.032c15.24-13.36,26.528-31.384,33.216-52c2.416-0.808,5.488-0.752,8.504-0.496    c10.504,0.936,20.704,3.816,30.28,8.128c-3.904,6.272-7.088,12.968-9.456,20.024l15.168,5.096    c2.064-6.152,4.896-11.976,8.376-17.424c0.192,0.128,0.4,0.224,0.584,0.352l7.672-11.192c15.072-16.88,37.28-28.648,63.112-32.512    c38.68-5.8,74.64,7.464,94.008,34.536l13.016-9.312c-8.032-11.224-18.448-20.4-30.464-27.36    c23.176-19.288,56.72-26.232,85.32-16.296l5.248-15.112c-36.064-12.56-78.752-2.4-106.168,23.952    c-19.04-7.256-40.848-9.608-63.32-6.232c-29.912,4.464-55.688,18.336-73.232,38.296c-12.112-5.928-25.256-9.664-38.744-10.872    c-1.768-0.16-3.664-0.232-5.6-0.216c1.664-8.696,2.6-17.704,2.656-26.952c0.08-12.112-1.208-24.128-2.456-35.752    c-1.032-9.624-2.096-19.576-2.32-29.24c-0.192-8.032,0.256-16.04,1.184-23.984l61.328,7.664c0.352,0.024,0.688,0.048,1.016,0.048    c1.896,0,3.752-0.68,5.2-1.928l56-48c3.08-2.632,3.696-7.144,1.456-10.504l-14.032-21.056c2.392-4.384,3.768-9.288,3.656-14.424    c-0.184-8.608-4.16-16.632-10.872-22.008l-47.544-38.04c-10.464-8.368-25.184-8.496-35.792-0.336l-90.584,69.696l-2.96,2.024    c-4.28,1.992-9.144,4.536-13.328,8.216c-8.288,7.288-11.832,18.016-14.944,27.488c-0.872,2.664-1.736,5.28-2.68,7.712    l-47.92,122.816c-4.088,10.48-7.792,31.784-11.368,52.376c-2.024,11.64-3.928,22.64-5.464,28.664    c-0.608,2.376-1.176,4.776-1.744,7.176c-2.24,9.488-4.36,18.44-8.776,26.056c-2.192,3.792-0.928,8.648,2.832,10.88l28.184,16.744    c75.544,44.872,170,75.832,252.68,82.824c6.408,0.544,14.48,0.864,23.696,0.864c45.992,0,120.184-8.048,155.384-37.064    l-10.168-12.344C417.901,450.127,327.173,456.167,286.693,452.759z" fill="#FFFFFF"/>
	</g>
</g>
<g>
</g>
<g>
</g>
<g>
</g>
<g>
</g>
<g>
</g>
<g>
</g>
<g>
</g>
<g>
</g>
<g>
</g>
<g>
</g>
<g>
</g>
<g>
</g>
<g>
</g>
<g>
</g>
<g>
</g>
</svg>
